<?xml version="1.0" encoding="utf-8"?>
<!-- Generator: Adobe Illustrator 16.0.0, SVG Export Plug-In . SVG Version: 6.00 Build 0)  -->
<!DOCTYPE svg PUBLIC "-//W3C//DTD SVG 1.1//EN" "http://www.w3.org/Graphics/SVG/1.1/DTD/svg11.dtd">
<svg version="1.1" id="Layer_1" xmlns="http://www.w3.org/2000/svg" xmlns:xlink="http://www.w3.org/1999/xlink" x="0px" y="0px"
	 width="960px" height="560px" viewBox="0 0 960 560" enable-background="new 0 0 960 560" xml:space="preserve">
<g>
	<path fill="#746e68" d="M347.746,288.32l-2.015-5.133h-9.405l-1.988,5.133h-2.553l7.9-19.429h2.768l8.196,19.429H347.746z
		 M340.92,271.068c-1.451,3.305-2.606,6.823-3.896,10.211h7.927L340.92,271.068z"/>
	<path fill="#746e68" d="M358.145,276.846c-2.794,0-3.708,1.586-3.708,4.164v7.312h-2.364v-9.595c0-1.315-0.054-2.659-0.081-3.977
		h2.311l0.107,2.176c0.967-1.586,2.284-2.258,4.138-2.258c0.242,0,0.484,0.027,0.752,0.055v2.23
		C358.897,276.898,358.521,276.846,358.145,276.846z"/>
	<path fill="#746e68" d="M365.816,288.453c-2.177,0-3.306-0.887-3.306-3.144v-8.922h-2.66v-1.639h2.66v-2.635l2.365-0.994v3.629
		h3.037v1.639h-3.037v7.98c0,1.531,0.134,2.258,1.854,2.258c0.43,0,0.806-0.107,1.263-0.135v1.801
		C367.24,288.4,366.542,288.453,365.816,288.453z"/>
	<path fill="#746e68" d="M385.19,288.615c-5.992,0-8.519-4.354-8.519-9.834c0-5.295,2.848-10.213,8.679-10.213
		c3.225,0,6.691,1.641,6.798,5.321h-2.66c-0.215-2.231-2.096-3.252-4.166-3.252c-4.38,0-5.992,4.299-5.992,8.033
		c0,3.816,1.424,7.875,5.912,7.875c2.499,0,4.192-1.397,4.327-3.44h2.714C391.801,287.164,388.845,288.615,385.19,288.615z"/>
	<path fill="#746e68" d="M396.289,281.979v0.269c0,2.5,1.344,4.783,4.084,4.783c1.935,0,3.198-1.183,3.494-3.09h2.257
		c-0.537,3.196-2.848,4.676-5.938,4.676c-4.218,0-6.261-2.822-6.261-6.854c0-4.057,2.042-7.254,6.449-7.254
		c4.542,0,5.831,3.521,5.831,7.471H396.289z M400.292,276.119c-2.499,0-3.735,2.043-3.95,4.301h7.524
		C403.894,278.189,402.765,276.119,400.292,276.119z"/>
	<path fill="#746e68" d="M417.92,288.32v-7.525c0-2.363-0.269-4.406-3.144-4.406c-2.929,0-3.735,2.66-3.735,5.16v6.771h-2.364
		v-10.078c0-1.154-0.054-2.713-0.081-3.492h2.338l0.08,2.176c1.102-1.559,2.473-2.338,4.434-2.338c3.547,0,4.836,1.963,4.836,5.295
		v8.438L417.92,288.32L417.92,288.32z"/>
	<path fill="#746e68" d="M427.916,288.453c-2.177,0-3.305-0.887-3.305-3.144v-8.922h-2.66v-1.639h2.66v-2.635l2.365-0.994v3.629
		h3.037v1.639h-3.037v7.98c0,1.531,0.134,2.258,1.854,2.258c0.43,0,0.806-0.107,1.263-0.135v1.801
		C429.34,288.4,428.642,288.453,427.916,288.453z"/>
	<path fill="#746e68" d="M433.452,281.979v0.269c0,2.5,1.343,4.783,4.084,4.783c1.935,0,3.198-1.183,3.493-3.09h2.257
		c-0.537,3.196-2.848,4.676-5.938,4.676c-4.219,0-6.261-2.822-6.261-6.854c0-4.057,2.042-7.254,6.449-7.254
		c4.541,0,5.831,3.521,5.831,7.471H433.452z M437.456,276.119c-2.5,0-3.735,2.043-3.95,4.301h7.524
		C441.056,278.189,439.928,276.119,437.456,276.119z"/>
	<path fill="#746e68" d="M451.913,276.846c-2.795,0-3.708,1.586-3.708,4.164v7.312h-2.365v-9.595c0-1.315-0.053-2.659-0.08-3.977
		h2.311l0.107,2.176c0.968-1.586,2.285-2.258,4.138-2.258c0.242,0,0.484,0.027,0.752,0.055v2.23
		C452.665,276.898,452.288,276.846,451.913,276.846z"/>
	<path fill="#746e68" d="M469.325,288.615c-5.992,0-8.519-4.354-8.519-9.834c0-5.295,2.848-10.213,8.679-10.213
		c3.225,0,6.691,1.641,6.799,5.321h-2.66c-0.215-2.231-2.097-3.252-4.166-3.252c-4.38,0-5.992,4.299-5.992,8.033
		c0,3.816,1.424,7.875,5.912,7.875c2.499,0,4.192-1.397,4.326-3.44h2.714C475.935,287.164,472.979,288.615,469.325,288.615z"/>
	<path fill="#746e68" d="M484.749,288.615c-4.327,0-6.691-3.035-6.691-7.148c0-4.084,2.499-7.014,6.717-7.014
		c4.301,0,6.639,2.875,6.639,7.014C491.413,285.471,488.968,288.615,484.749,288.615z M484.749,276.146
		c-3.037,0-4.192,2.659-4.192,5.319c0,2.633,1.128,5.535,4.192,5.535c3.01,0,4.192-2.955,4.192-5.535
		C488.941,278.807,487.785,276.146,484.749,276.146z"/>
	<path fill="#746e68" d="M493.885,288.32v-19.429h2.364v19.429H493.885z"/>
	<path fill="#746e68" d="M499.689,288.32v-19.429h2.363v19.429H499.689z"/>
	<path fill="#746e68" d="M506.891,281.979v0.269c0,2.5,1.345,4.783,4.084,4.783c1.936,0,3.198-1.183,3.493-3.09h2.258
		c-0.536,3.196-2.849,4.676-5.938,4.676c-4.219,0-6.262-2.822-6.262-6.854c0-4.057,2.042-7.254,6.448-7.254
		c4.541,0,5.831,3.521,5.831,7.471H506.891z M510.894,276.119c-2.497,0-3.733,2.043-3.948,4.301h7.523
		C514.495,278.189,513.366,276.119,510.894,276.119z"/>
	<path fill="#746e68" d="M531.128,279.453v5.022c0,5.214-0.241,9.244-6.395,9.244c-2.742,0-5.617-0.834-5.617-4.139h2.312
		c-0.026,1.936,1.612,2.527,3.278,2.527c2.848,0,3.789-1.586,4.004-4.084c0.054-0.728,0.054-1.479,0.054-2.232
		c-1.048,1.613-2.553,2.394-4.486,2.394c-4.06,0-5.967-3.091-5.967-6.826c0-3.601,1.988-6.853,5.938-6.853
		c2.016,0,3.573,0.808,4.595,2.554c0-0.753,0-1.531,0-2.312h2.393C531.048,276.309,531.128,277.893,531.128,279.453z
		 M524.84,276.146c-2.981,0-4.003,2.739-4.003,5.295c0,2.524,1.075,5.157,3.978,5.157c3.01,0,3.978-2.795,3.978-5.375
		C528.79,278.834,527.581,276.146,524.84,276.146z"/>
	<path fill="#746e68" d="M535.991,281.979v0.269c0,2.5,1.345,4.783,4.085,4.783c1.935,0,3.198-1.183,3.493-3.09h2.258
		c-0.538,3.196-2.849,4.676-5.939,4.676c-4.219,0-6.261-2.822-6.261-6.854c0-4.057,2.042-7.254,6.449-7.254
		c4.541,0,5.831,3.521,5.831,7.471H535.991z M539.996,276.119c-2.499,0-3.735,2.043-3.95,4.301h7.523
		C543.597,278.189,542.468,276.119,539.996,276.119z"/>
	<path fill="#746e68" d="M561.036,288.615c-4.327,0-6.691-3.035-6.691-7.148c0-4.084,2.5-7.014,6.718-7.014
		c4.301,0,6.639,2.875,6.639,7.014C567.7,285.471,565.255,288.615,561.036,288.615z M561.036,276.146
		c-3.037,0-4.191,2.659-4.191,5.319c0,2.633,1.128,5.535,4.191,5.535c3.01,0,4.19-2.955,4.19-5.535
		C565.229,278.807,564.072,276.146,561.036,276.146z"/>
	<path fill="#746e68" d="M575.708,270.477c-1.316,0-2.203,0.322-2.203,1.802v2.473h3.036v1.639h-3.036v11.933h-2.365V276.39h-2.714
		v-1.639h2.714v-1.291c0-2.74,0.376-4.729,3.654-4.729c0.646,0,1.29,0.026,1.962,0.079v1.722
		C576.38,270.504,576.058,270.477,575.708,270.477z"/>
	<path fill="#746e68" d="M593.792,288.213c-1.074,0.107-2.203,0.107-3.278,0.107h-4.676V268.89h5.697
		c1.691,0,3.815,0.162,5.374,0.808c3.708,1.531,4.918,4.891,4.918,8.84C601.827,283.859,599.354,287.648,593.792,288.213z
		 M596.425,271.982c-1.451-1.05-3.357-1.156-5.052-1.156h-3.009v15.531h3.493c5.293,0,7.336-2.74,7.336-7.818
		C599.193,276.066,598.548,273.514,596.425,271.982z"/>
	<path fill="#746e68" d="M605.883,281.979v0.269c0,2.5,1.346,4.783,4.085,4.783c1.937,0,3.198-1.183,3.494-3.09h2.257
		c-0.537,3.196-2.848,4.676-5.938,4.676c-4.219,0-6.263-2.822-6.263-6.854c0-4.057,2.044-7.254,6.449-7.254
		c4.541,0,5.832,3.521,5.832,7.471H605.883z M609.888,276.119c-2.499,0-3.734,2.043-3.95,4.301h7.524
		C613.488,278.189,612.359,276.119,609.888,276.119z"/>
	<path fill="#746e68" d="M622.625,288.615c-2.875,0-5.294-1.129-5.294-4.406h2.365c0.105,1.881,1.182,2.768,3.034,2.768
		c1.427,0,3.064-0.698,3.064-2.311c0-0.887-0.511-1.426-1.264-1.801c-0.832-0.402-1.854-0.619-2.769-0.834
		c-2.015-0.51-4.084-1.316-4.084-3.734c0-2.822,2.769-3.869,5.159-3.869c2.714,0,4.864,1.129,4.972,4.111h-2.338
		c-0.054-1.586-1.102-2.5-2.688-2.5c-1.236,0-2.795,0.564-2.795,2.016c0,0.834,0.511,1.316,1.263,1.693
		c0.86,0.43,1.882,0.619,2.796,0.859c2.041,0.536,4.084,1.315,4.084,3.789C628.134,287.486,625.285,288.615,622.625,288.615z"/>
	<path fill="#746e68" d="M648.286,279.453v5.022c0,5.214-0.242,9.244-6.396,9.244c-2.74,0-5.615-0.834-5.615-4.139h2.311
		c-0.026,1.936,1.612,2.527,3.278,2.527c2.849,0,3.788-1.586,4.004-4.084c0.054-0.728,0.054-1.479,0.054-2.232
		c-1.048,1.613-2.553,2.394-4.487,2.394c-4.058,0-5.966-3.091-5.966-6.826c0-3.601,1.988-6.853,5.938-6.853
		c2.016,0,3.573,0.808,4.595,2.554c0-0.753,0-1.531,0-2.312h2.392C648.206,276.309,648.286,277.893,648.286,279.453z
		 M641.998,276.146c-2.982,0-4.003,2.739-4.003,5.295c0,2.524,1.075,5.157,3.977,5.157c3.011,0,3.979-2.795,3.979-5.375
		C645.949,278.834,644.739,276.146,641.998,276.146z"/>
	<path fill="#746e68" d="M660.997,288.32v-7.525c0-2.363-0.271-4.406-3.146-4.406c-2.929,0-3.734,2.66-3.734,5.16v6.771h-2.364
		v-10.078c0-1.154-0.055-2.713-0.082-3.492h2.339l0.08,2.176c1.104-1.559,2.474-2.338,4.436-2.338c3.547,0,4.837,1.963,4.837,5.295
		v8.438L660.997,288.32L660.997,288.32z"/>
	<g>
		<path fill="#746e68" d="M320.546,278.619c0,6.152-4.988,11.141-11.141,11.141c-6.153,0-11.141-4.987-11.141-11.141
			s4.989-11.141,11.141-11.141C315.557,267.479,320.546,272.467,320.546,278.619z"/>
	</g>
	<path fill="#746e68" d="M630.632,288.32v-13.57h2.365v13.57H630.632z M633.18,270.059c0-0.754-0.61-1.364-1.364-1.364
		c-0.756,0-1.365,0.61-1.365,1.364s0.609,1.365,1.365,1.365C632.568,271.424,633.18,270.812,633.18,270.059z"/>
</g>
</svg>
