<?xml version="1.0" encoding="utf-8"?>
<!-- Generator: Adobe Illustrator 19.0.0, SVG Export Plug-In . SVG Version: 6.00 Build 0)  -->
<svg version="1.1" id="Layer_1" xmlns="http://www.w3.org/2000/svg" xmlns:xlink="http://www.w3.org/1999/xlink" x="0px" y="0px"
	 viewBox="-163 165 72 72" style="enable-background:new -163 165 72 72;" xml:space="preserve">
<style type="text/css">
	.st0{fill:#3C3C41;}
	.st1{fill:#FFFFFF;}
</style>
<g>
	<circle class="st0" cx="-127.3" cy="200.7" r="35.7"/>
</g>
<g>
	<g>
		<path class="st1" d="M-121.9,174.6l-25.5,11.3c-0.3,0.1-0.5,0.4-0.5,0.7c0,0,0,0.1,0,0.1l-0.9,4.8c-0.1,0.3-0.1,0.5,0,0.8l15,34
			c0.2,0.5,0.7,0.7,1.2,0.6c0.1,0,0.2,0,0.2-0.1l0,0l26.4-11.7c0.5-0.2,0.7-0.7,0.5-1.2l-0.8-1.9l0,0c0.5-0.2,0.7-0.7,0.5-1.2
			l-0.8-1.9l0.1,0c0.4-0.2,0.6-0.7,0.4-1.1l-14.5-32.8C-121,174.6-121.5,174.4-121.9,174.6z M-146,187.1l24-10.6l13.8,31.3l-24,10.6
			L-146,187.1z M-147.1,192.6l0.3-2.9l13.1,29.6l0.1,3.7L-147.1,192.6z M-107.6,213.9l-24.1,10.7l0.1-1.3l23.6-10.4L-107.6,213.9z
			 M-108,210.8l-23.6,10.4l0.1-1.3l23.1-10.2L-108,210.8z"/>
	</g>
	<g>
		<path class="st1" d="M-139,188.3l0.6,6.7l0.8-0.4l-0.2-1.8l2.2-1l1.2,1.3l0.8-0.4l-4.6-5L-139,188.3z M-137.8,192l-0.2-2.8l1.9,2
			L-137.8,192z"/>
	</g>
	<g>
		<path class="st1" d="M-130.2,190.7c-1.4,0.6-2.7,0-3.3-1.3c-0.6-1.3-0.2-2.7,1.2-3.3c0.8-0.3,1.5-0.3,2.1,0.1l0.3-0.8
			c-0.9-0.5-1.9-0.5-2.8-0.1c-1.7,0.8-2.4,2.7-1.6,4.4c0.8,1.7,2.6,2.5,4.4,1.7c0.9-0.4,1.6-1.2,1.8-2.2l-0.8-0.3
			C-129,189.8-129.4,190.3-130.2,190.7z"/>
	</g>
	<g>
		<polygon class="st1" points="-123.6,186.7 -128,183.5 -128.9,183.9 -126.3,189.7 -125.5,189.4 -127.4,184.9 -123,188.3 
			-122.1,187.8 -124.6,182 -125.5,182.4 		"/>
	</g>
</g>
</svg>
