<?xml version="1.0" encoding="utf-8"?>
<!-- Generator: Adobe Illustrator 19.0.0, SVG Export Plug-In . SVG Version: 6.00 Build 0)  -->
<svg version="1.1" id="Layer_1" xmlns="http://www.w3.org/2000/svg" xmlns:xlink="http://www.w3.org/1999/xlink" x="0px" y="0px"
	 viewBox="-163 165 72 72" style="enable-background:new -163 165 72 72;" xml:space="preserve">
<style type="text/css">
	.st0{fill:#3C3C41;}
	.st1{fill:none;}
	.st2{fill:#FFFFFF;}
</style>
<g>
	<circle class="st0" cx="-127.3" cy="200.7" r="35.7"/>
</g>
<g>
	<g>
		<path class="st1" d="M-136.1,185.1"/>
	</g>
	<g>
		<path class="st2" d="M-118.4,217.4c-0.3,0-0.7,0-1-0.1c-6.7-0.7-19.6-6.3-25.6-22.9c0-0.1,0-0.2-0.1-0.3c-0.2-4.3,1.4-7.8,4.5-9.9
			c0.1-0.1,0.3-0.1,0.5-0.2l0.5,0c0.6,0,1.2,0,1.6,0l1.8,0.1c0.3,0,0.6,0.2,0.8,0.5l3.5,8.1c0.1,0.3,0.1,0.6-0.1,0.8l-2.6,4.2
			c1,1.7,4.8,8,11.3,10c2.6-2.5,4-4.1,4-4.1c0.3-0.3,0.7-0.4,1-0.2l8.3,4c0.3,0.2,0.6,0.5,0.5,0.9l-0.5,4c0,0.1-0.1,0.3-0.1,0.4
			C-110.3,213-113.1,217.4-118.4,217.4L-118.4,217.4z M-143.3,193.9c5.7,15.7,18.2,21,24,21.6c4.3,0.5,7-2.8,7.5-3.5l0.4-3.1
			l-7.1-3.4c-0.7,0.7-2,2.1-4,4c-0.2,0.2-0.6,0.3-0.9,0.2c-8.6-2.3-12.9-11.1-13.1-11.5c-0.1-0.3-0.1-0.6,0-0.9l2.7-4.2l-3.1-7.1
			l-1.2-0.1c-0.4,0-1,0-1.6,0l-0.2,0C-142.2,187.6-143.4,190.4-143.3,193.9L-143.3,193.9z"/>
	</g>
</g>
</svg>
