<?xml version="1.0" encoding="utf-8"?>
<!-- Generator: Adobe Illustrator 19.0.0, SVG Export Plug-In . SVG Version: 6.00 Build 0)  -->
<svg version="1.1" id="Layer_1" xmlns="http://www.w3.org/2000/svg" xmlns:xlink="http://www.w3.org/1999/xlink" x="0px" y="0px"
	 viewBox="-163 165 72 72" style="enable-background:new -163 165 72 72;" xml:space="preserve">
<style type="text/css">
	.st0{fill:#3C3C41;}
	.st1{fill:#FFFFFF;}
</style>
<g>
	<circle class="st0" cx="-127.3" cy="200.7" r="35.7"/>
</g>
<g>
	<g>
		<g>
			<path class="st1" d="M-111.9,220.7h-28.9c-0.5,0-0.9-0.4-0.9-0.9v-38.1c0-0.5,0.4-0.9,0.9-0.9h21.9v1.8h-21v36.3h27.1v-30.5h1.8
				v31.4C-111,220.2-111.4,220.7-111.9,220.7L-111.9,220.7z"/>
		</g>
		<g>
			<path class="st1" d="M-111.9,189.2h-6.9c-0.5,0-0.9-0.4-0.9-0.9v-6.6c0-0.4,0.2-0.7,0.5-0.8c0.3-0.1,0.7-0.1,1,0.2l6.9,6.6
				c0.3,0.3,0.3,0.6,0.2,1C-111.2,189-111.5,189.2-111.9,189.2L-111.9,189.2z M-117.9,187.4h3.8l-3.8-3.6V187.4L-117.9,187.4z"/>
		</g>
	</g>
	<g>
		<path class="st1" d="M-117.4,195.1h-11.7c-0.4,0-0.7-0.3-0.7-0.7s0.3-0.7,0.7-0.7h11.7c0.4,0,0.7,0.3,0.7,0.7
			S-117,195.1-117.4,195.1L-117.4,195.1z"/>
	</g>
	<g>
		<circle class="st1" cx="-133.7" cy="194.4" r="1.4"/>
	</g>
	<g>
		<path class="st1" d="M-117.4,200.9h-11.7c-0.4,0-0.7-0.3-0.7-0.7s0.3-0.7,0.7-0.7h11.7c0.4,0,0.7,0.3,0.7,0.7
			S-117,200.9-117.4,200.9L-117.4,200.9z"/>
	</g>
	<g>
		<circle class="st1" cx="-133.7" cy="200.2" r="1.4"/>
	</g>
	<g>
		<path class="st1" d="M-117.4,207.1h-11.7c-0.4,0-0.7-0.3-0.7-0.7s0.3-0.7,0.7-0.7h11.7c0.4,0,0.7,0.3,0.7,0.7
			S-117,207.1-117.4,207.1L-117.4,207.1z"/>
	</g>
	<g>
		<circle class="st1" cx="-133.7" cy="206.3" r="1.4"/>
	</g>
	<g>
		<path class="st1" d="M-117.4,213.3h-11.7c-0.4,0-0.7-0.3-0.7-0.7c0-0.4,0.3-0.7,0.7-0.7h11.7c0.4,0,0.7,0.3,0.7,0.7
			C-116.7,212.9-117,213.3-117.4,213.3L-117.4,213.3z"/>
	</g>
	<g>
		<circle class="st1" cx="-133.7" cy="212.6" r="1.4"/>
	</g>
</g>
</svg>
