<?xml version="1.0" encoding="utf-8"?>
<!-- Generator: Adobe Illustrator 19.0.0, SVG Export Plug-In . SVG Version: 6.00 Build 0)  -->
<svg version="1.1" id="Layer_1" xmlns="http://www.w3.org/2000/svg" xmlns:xlink="http://www.w3.org/1999/xlink" x="0px" y="0px"
	 viewBox="-163 165 72 72" style="enable-background:new -163 165 72 72;" xml:space="preserve">
<style type="text/css">
	.st0{fill:#3C3C41;}
	.st1{fill:#FFFFFF;}
</style>
<g>
	<circle class="st0" cx="-127.3" cy="200.7" r="35.7"/>
</g>
<g>
	<g>
		<path class="st1" d="M-129.1,200.1h-16.1c-0.5,0-0.9-0.4-0.9-0.9v-13.6c0-0.5,0.4-0.9,0.9-0.9h16.1c0.5,0,0.9,0.4,0.9,0.9v13.6
			C-128.2,199.7-128.6,200.1-129.1,200.1L-129.1,200.1z M-144.3,198.3h14.3v-11.8h-14.3V198.3L-144.3,198.3z"/>
	</g>
	<g>
		<path class="st1" d="M-109.3,191.8h-15c-0.5,0-0.9-0.4-0.9-0.9v-5.2c0-0.5,0.4-0.9,0.9-0.9h15c0.5,0,0.9,0.4,0.9,0.9v5.2
			C-108.4,191.4-108.8,191.8-109.3,191.8L-109.3,191.8z M-123.4,190h13.2v-3.4h-13.2V190L-123.4,190z"/>
	</g>
	<g>
		<path class="st1" d="M-109.3,216.7h-13.8c-0.5,0-0.9-0.4-0.9-0.9V196c0-0.5,0.4-0.9,0.9-0.9h13.8c0.5,0,0.9,0.4,0.9,0.9v19.9
			C-108.4,216.3-108.8,216.7-109.3,216.7L-109.3,216.7z M-122.2,214.9h12v-18.1h-12V214.9L-122.2,214.9z"/>
	</g>
	<g>
		<path class="st1" d="M-131.2,216.7h-14.1c-0.5,0-0.9-0.4-0.9-0.9v-10.7c0-0.5,0.4-0.9,0.9-0.9h14.1c0.5,0,0.9,0.4,0.9,0.9v10.7
			C-130.3,216.3-130.7,216.7-131.2,216.7L-131.2,216.7z M-144.3,214.9h12.3V206h-12.3V214.9L-144.3,214.9z"/>
	</g>
</g>
</svg>
