<?xml version="1.0" encoding="utf-8"?>
<!-- Generator: Adobe Illustrator 19.0.0, SVG Export Plug-In . SVG Version: 6.00 Build 0)  -->
<svg version="1.1" id="Layer_1" xmlns="http://www.w3.org/2000/svg" xmlns:xlink="http://www.w3.org/1999/xlink" x="0px" y="0px"
	 viewBox="-163 165 72 72" style="enable-background:new -163 165 72 72;" xml:space="preserve">
<style type="text/css">
	.st0{fill:#3C3C41;}
	.st1{fill:#FFFFFF;}
</style>
<g>
	<circle class="st0" cx="-127.3" cy="200.7" r="35.7"/>
</g>
<g>
	<g>
		<path class="st1" d="M-127.3,213.7l-0.6-1.1c-0.3-0.5-6.9-12.8-6.9-16.7c0-4.1,3.4-7.5,7.5-7.5c4.1,0,7.5,3.4,7.5,7.5
			c0,3.9-6.6,16.2-6.9,16.7L-127.3,213.7L-127.3,213.7z M-127.3,189.8c-3.4,0-6.1,2.8-6.1,6.1c0,2.7,4,10.9,6.1,14.9
			c2.1-4.1,6.1-12.3,6.1-14.9C-121.1,192.5-123.9,189.8-127.3,189.8L-127.3,189.8z M-127.3,200.2c-2.4,0-4.3-1.9-4.3-4.3
			s1.9-4.3,4.3-4.3c2.4,0,4.3,1.9,4.3,4.3S-124.9,200.2-127.3,200.2L-127.3,200.2z M-127.3,193c-1.6,0-3,1.3-3,3s1.3,3,3,3
			c1.6,0,3-1.3,3-3S-125.6,193-127.3,193L-127.3,193z"/>
	</g>
</g>
</svg>
