<?xml version="1.0" encoding="utf-8"?>
<!-- Generator: Adobe Illustrator 16.0.0, SVG Export Plug-In . SVG Version: 6.00 Build 0)  -->
<!DOCTYPE svg PUBLIC "-//W3C//DTD SVG 1.1//EN" "http://www.w3.org/Graphics/SVG/1.1/DTD/svg11.dtd">
<svg version="1.1" id="Layer_1" xmlns="http://www.w3.org/2000/svg" xmlns:xlink="http://www.w3.org/1999/xlink" x="0px" y="0px"
	 width="166px" height="87px" viewBox="0 0 166 87" enable-background="new 0 0 166 87" xml:space="preserve">
<g>
	<path fill="#746e68" d="M19.045,2.868h8.38l19.047,55.616h-8l-4.952-14.477H12.875L8,58.484H0L19.045,2.868z M15.466,36.39h15.465
		l-7.694-22.855L15.466,36.39z"/>
	<path fill="#746e68" d="M84.108,1.343c8.381,0,16.761,3.81,22.094,10.667l-5.332,5.333c-3.809-5.333-9.143-8.458-16.38-8.458
		c-12.953,0-20.876,9.522-20.876,21.79c0,12.266,7.923,21.79,21.255,21.79c7.236,0,12.571-3.123,16.38-8.459l5.334,5.336
		c-5.334,6.855-13.714,10.664-22.095,10.664c-16.76,0-28.951-12.952-28.951-29.256C55.539,14.374,67.729,1.343,84.108,1.343z"/>
	<path fill="#746e68" d="M156.562,2.868h7.924v55.616h-8.763L132.03,16.583v41.901h-7.922V2.868h8.76l23.693,41.14V2.868z"/>
</g>
<g>
	<rect x="35.355" y="84.78" fill="#2bc1ca" width="98.346" height="2.22"/>
</g>
<g>
	<path fill="#746e68" d="M38.552,72.98h1.302l2.96,8.645H41.57l-0.77-2.25h-3.208l-0.757,2.25h-1.244L38.552,72.98z M37.995,78.19
		h2.404l-1.196-3.553L37.995,78.19z"/>
	<path fill="#746e68" d="M43.876,76.06h1.065l0.118,0.593l0.06,0.059l0.059-0.059c0.355-0.475,0.829-0.712,1.303-0.712
		c0.237,0,0.355,0,0.591,0.119v1.066h-0.709c-0.698,0-1.279,0.567-1.304,1.253v3.244h-1.184L43.876,76.06L43.876,76.06z"/>
	<path fill="#746e68" d="M47.427,76.06h1.077v-1.185l0.936-1.186h0.225v2.367h1.196v1.066h-1.196v2.841
		c0,0.355,0.249,0.593,0.603,0.593l0.71-0.117v1.063l-0.651,0.119c-1.185,0-1.824-0.593-1.824-1.658v-2.841h-1.077V76.06z"/>
	<path fill="#746e68" d="M59.323,72.743c1.302,0,2.604,0.595,3.434,1.659l-0.829,0.828c-0.592-0.828-1.421-1.313-2.545-1.313
		c-2.013,0-3.244,1.479-3.244,3.385c0,1.906,1.231,3.387,3.304,3.387c1.125,0,1.953-0.485,2.545-1.313l0.829,0.828
		c-0.829,1.063-2.131,1.658-3.434,1.658c-2.604,0-4.5-2.016-4.5-4.547C54.882,74.77,56.777,72.743,59.323,72.743z"/>
	<path fill="#746e68" d="M64.706,79.138c0,0.828,0.592,1.539,1.6,1.539c0.709,0,1.194-0.356,1.372-0.83l0.994,0.474
		c-0.473,0.83-1.302,1.422-2.426,1.422c-1.481,0-2.725-1.185-2.725-2.9s1.185-2.901,2.725-2.901c1.42,0,2.604,1.126,2.604,2.842
		l-0.118,0.355H64.706z M64.765,78.097h2.842c-0.059-0.617-0.651-1.091-1.362-1.091C65.416,77.007,64.943,77.479,64.765,78.097z"/>
	<path fill="#746e68" d="M69.971,76.06h1.065l0.119,0.474l0.059,0.059l0.059-0.059c0.235-0.355,0.83-0.593,1.303-0.593
		c1.42,0,2.25,0.948,2.25,2.25v3.435h-1.184V78.19c-0.037-0.758-0.403-1.184-1.186-1.184c-0.699,0-1.279,0.567-1.302,1.255v3.361
		h-1.185V76.06H69.971z"/>
	<path fill="#746e68" d="M75.593,76.06h1.078v-1.185l0.935-1.186h0.226v2.367h1.196v1.066h-1.196v2.841
		c0,0.355,0.249,0.593,0.604,0.593l0.709-0.117v1.063l-0.651,0.119c-1.184,0-1.823-0.593-1.823-1.658v-2.841h-1.078V76.06z"/>
	<path fill="#746e68" d="M80.979,79.138c0,0.828,0.592,1.539,1.598,1.539c0.71,0,1.196-0.356,1.374-0.83l0.995,0.474
		c-0.475,0.83-1.304,1.422-2.429,1.422c-1.479,0-2.724-1.185-2.724-2.9s1.186-2.901,2.724-2.901c1.422,0,2.605,1.126,2.605,2.842
		l-0.118,0.355H80.979z M81.038,78.097h2.841c-0.059-0.617-0.65-1.091-1.362-1.091C81.688,77.007,81.215,77.479,81.038,78.097z"/>
	<path fill="#746e68" d="M86.244,76.06h1.065l0.118,0.593l0.059,0.059l0.06-0.059c0.354-0.475,0.828-0.712,1.302-0.712
		c0.236,0,0.354,0,0.593,0.119v1.066h-0.712c-0.696,0-1.279,0.567-1.301,1.253v3.244h-1.186V76.06H86.244z"/>
	<path fill="#746e68" d="M98.673,81.625h-1.064l-0.119-0.475l-0.059-0.06l-0.059,0.06c-0.354,0.354-0.947,0.592-1.539,0.592
		c-1.539,0-2.843-1.186-2.843-2.9c0-1.716,1.304-2.901,2.843-2.901c0.592,0,1.185,0.236,1.539,0.593l0.059,0.059l0.059-0.059
		l0.119-0.476h1.064V81.625z M95.89,77.007c-1.124,0-1.728,0.828-1.728,1.833c0,1.007,0.604,1.837,1.728,1.837
		c1.007,0,1.718-0.83,1.718-1.837C97.607,77.835,96.897,77.007,95.89,77.007z"/>
	<path fill="#746e68" d="M99.617,76.06h1.077v-1.185l0.938-1.186h0.225v2.367h1.196v1.066h-1.196v2.841
		c0,0.355,0.249,0.593,0.604,0.593l0.709-0.117v1.063l-0.65,0.119c-1.186,0-1.825-0.593-1.825-1.658v-2.841h-1.077V76.06
		L99.617,76.06z"/>
	<path fill="#746e68" d="M112.591,72.98h1.231v8.645h-1.362l-3.682-6.514v6.514h-1.231V72.98h1.361l3.683,6.395V72.98z"/>
	<path fill="#746e68" d="M115.595,73.691h1.184v1.302h-1.184V73.691z M115.606,76.06h1.16v5.563h-1.16V76.06z"/>
	<path fill="#746e68" d="M119.026,80.262c-0.639-0.378-1.064-1.04-1.064-1.896c0-1.36,1.064-2.426,2.426-2.426
		c0.534,0,1.126,0.236,1.363,0.593l0.058,0.059l0.061-0.059l0.117-0.476h0.829v2.309c0,0.853-0.426,1.518-1.064,1.896
		c0.639,0.332,1.064,0.937,1.064,1.729c0,1.326-1.185,2.107-2.428,2.107c-1.241,0-2.426-0.781-2.426-2.107
		C117.961,81.198,118.398,80.594,119.026,80.262z M120.388,79.729c0.77,0,1.305-0.592,1.305-1.362s-0.535-1.36-1.305-1.36
		s-1.302,0.59-1.302,1.36S119.618,79.729,120.388,79.729z M120.388,83.081c0.77,0,1.305-0.451,1.305-1.102
		c0-0.651-0.535-1.125-1.305-1.125s-1.302,0.474-1.302,1.125C119.086,82.63,119.618,83.081,120.388,83.081z"/>
	<path fill="#746e68" d="M124.174,72.627h1.186v3.906l0.06,0.059l0.059-0.059c0.236-0.355,0.828-0.593,1.303-0.593
		c1.421,0,2.25,0.946,2.25,2.25v3.435h-1.186V78.19c-0.035-0.758-0.403-1.185-1.184-1.185c-0.699,0-1.279,0.568-1.304,1.254v3.362
		h-1.185L124.174,72.627L124.174,72.627z"/>
	<path fill="#746e68" d="M129.795,76.06h1.077v-1.185l0.937-1.186h0.225v2.367h1.195v1.066h-1.195v2.841
		c0,0.355,0.249,0.593,0.604,0.593l0.709-0.117v1.063l-0.65,0.119c-1.185,0-1.824-0.593-1.824-1.658v-2.841h-1.077V76.06
		L129.795,76.06z"/>
</g>
</svg>
