<?xml version="1.0" encoding="utf-8"?>
<!-- Generator: Adobe Illustrator 19.0.0, SVG Export Plug-In . SVG Version: 6.00 Build 0)  -->
<svg version="1.1" id="Layer_1" xmlns="http://www.w3.org/2000/svg" xmlns:xlink="http://www.w3.org/1999/xlink" x="0px" y="0px"
	 viewBox="-163 165 72 72" style="enable-background:new -163 165 72 72;" xml:space="preserve">
<style type="text/css">
	.st0{fill:#3C3C41;}
	.st1{fill:#FFFFFF;}
</style>
<g>
	<circle class="st0" cx="-127.3" cy="200.7" r="35.7"/>
</g>
<g>
	<path class="st1" d="M-119.8,212.6c-0.2,0-0.5-0.1-0.6-0.3l-7.5-7.5l-3.7,3.7c-0.2,0.2-0.5,0.3-0.8,0.2c-0.3-0.1-0.5-0.3-0.6-0.6
		L-139,190c-0.1-0.3,0-0.7,0.2-0.9c0.2-0.2,0.6-0.3,0.9-0.2l17.9,6.1c0.3,0.1,0.5,0.3,0.6,0.6c0.1,0.3,0,0.6-0.2,0.8l-3.7,3.8
		l7.5,7.5c0.4,0.4,0.4,0.9,0,1.3l-3.3,3.3C-119.3,212.5-119.5,212.6-119.8,212.6L-119.8,212.6z M-127.9,202.7c0.2,0,0.5,0.1,0.6,0.3
		l7.5,7.5l2.1-2.1l-7.5-7.5c-0.4-0.4-0.4-0.9,0-1.3l3.4-3.4l-14.9-5.1l4.9,15.1l3.3-3.3C-128.4,202.8-128.1,202.7-127.9,202.7
		L-127.9,202.7L-127.9,202.7z"/>
</g>
</svg>
